# xmcd
#
# Track frame offsets:
#	150
#	21167
#	39827
#	54912
#	72622
#	91200
#	105292
#	121185
#	140225
#	158020
#
# Disc length: 2419 seconds
#
# Revision: 1
# Processed by: cddbd v1.5PL3 Copyright (c) Steve Scherf et al.
# Submitted via: CDex 1.50Beta5
#
DISCID=7a09710a
DTITLE=柳ジョージ&レイニーウッド - Woman and I ...OLD FASHIONED LOVE SONGS DISC1
DYEAR=1900
DGENRE=Blues
TTITLE0=A CHANGE IS GONNA COME
TTITLE1=CINDERELLA LIBERTY
TTITLE2=MY SAD SONG
TTITLE3=LONELY NIGHT
TTITLE4=SHE'S OUR DAUGHTER
TTITLE5=HARBOR FREEWAY
TTITLE6=LONG HOT SUMMER X'MAS
TTITLE7=STREET BATTLE
TTITLE8=YOU'VE REALLY GOT A HOLD ON ME
TTITLE9=STELLA 1962, SUMMER...
EXTD=
EXTT0=
EXTT1=
EXTT2=
EXTT3=
EXTT4=
EXTT5=
EXTT6=
EXTT7=
EXTT8=
EXTT9=
PLAYORDER=
